<svg xmlns="http://www.w3.org/2000/svg" xmlns:xlink="http://www.w3.org/1999/xlink" width="842" height="596" version="1.1" viewBox="0 0 842 596"><title>Group 4</title><desc>Created with Sketch.</desc><g id="Page-1" fill="none" fill-rule="evenodd" stroke="none" stroke-width="1"><g id="Artboard" transform="translate(-458.000000, -78.000000)"><g id="Group-4" transform="translate(458.340363, 78.000000)"><g id="Group-3" transform="translate(202.659637, 0.000000)"><g id="Group"><polygon id="Path" fill="#79A5FF" points="43.061 83.962 127.593 83.962 143.517 35.6"/><polygon id="Path" fill="#5489F3" points="175.919 68.362 258.913 68.362 275.866 20" transform="translate(225.892408, 44.181108) scale(1, -1) translate(-225.892408, -44.181108)"/><polygon id="Path-2" fill="#326DE6" points="143.517 35.6 143.517 83.962 127.593 83.962"/><polygon id="Path-3" fill="#79A5FF" points="143.517 35.6 217.409 112.78 217.416 40.084"/><polygon id="Path-4" fill="#A8C4FF" points="175.919 20 258.913 20 217.416 0"/><polygon id="Path-5" fill="#326DE6" points="143.517 35.6 217.416 40.095 175.919 20"/><polygon id="Path-6" fill="#A8C4FF" points="143.517 35.6 143.517 177.47 217.409 112.78"/><polygon id="Path-7" fill="#A8C4FF" points="43.061 83.962 113.219 153.384 143.517 83.962"/><polygon id="Path-8" fill="#79A5FF" points="143.517 83.962 143.517 243.193 113.219 153.384"/><polygon id="Path-9" fill="#79A5FF" points="113.219 153.384 43.061 83.962 27.21 153.384"/><polygon id="Path-10" fill="#5489F3" points="143.517 243.193 217.409 112.78 143.517 177.47"/><polygon id="Path-11" fill="#A8C4FF" points="113.219 153.384 93.289 195.827 143.517 243.193"/><polygon id="Path-12" fill="#79A5FF" points="93.289 195.827 11.32 223 27.21 153.384"/><polygon id="Path-13" fill="#5489F3" points="27.21 153.384 93.289 195.827 113.219 153.384"/><polygon id="Path-14" fill="#326DE6" points="0 272.622 93.289 195.827 11.32 223"/><polygon id="Path-15" fill="#A8C4FF" points="217.416 112.78 275.866 68.362 217.416 40.084"/><polygon id="Path-16" fill="#A8C4FF" points="275.866 68.362 341.481 59.726 258.913 20"/><polygon id="Path-17" fill="#5489F3" points="217.409 112.78 275.866 150.722 341.481 59.726 275.866 68.362"/><polygon id="Path-18" fill="#2C60C8" points="209.692 196.959 275.866 150.722 217.409 112.78"/><polygon id="Path-19" fill="#326DE6" points="189.455 211.078 180.467 288.208 275.866 205.023 229.5 183.103"/><polygon id="Path-20" fill="#2D55A5" points="180.463 288.208 143.517 330.455 51.444 262.08 143.517 243.193"/><polygon id="Path-21" fill="#2D55A5" points="0 272.622 51.444 262.08 46.108 330.455"/><polygon id="Path-22" fill="#5489F3" points="46.108 330.455 143.517 330.455 86.399 288.03"/><polygon id="Path-23" fill="#326DE6" points="51.444 262.08 46.108 330.455 86.399 288.03"/><polygon id="Path-24" fill="#234A96" points="96.057 330.455 46.108 330.455 71.462 362.23"/><polygon id="Path-25" fill="#1D52BB" points="86.399 362.23 115.953 362.23 143.517 330.455 96.057 330.455"/><polygon id="Path-26" fill="#326DE6" points="71.462 362.23 86.399 362.23 96.057 330.455"/><polygon id="Path-27" fill="#5489F3" points="115.953 362.23 120.653 423.916 71.462 362.23"/><polygon id="Path-28" fill="#1D4493" points="115.953 362.23 180.467 362.23 180.467 288.208"/><polygon id="Path-29" fill="#234A96" points="180.467 362.23 115.953 362.23 120.653 423.916"/><polygon id="Path-30" fill="#2D55A5" points="275.866 150.722 275.866 205.023 345.001 150.722"/><polygon id="Path-31" fill="#326DE6" points="275.866 150.722 406.996 150.722 391.757 83.962"/><polygon id="Path-32" fill="#326DE6" points="275.866 205.023 310.433 238.825 345.001 150.722"/><polygon id="Path-33" fill="#2D55A5" points="180.467 288.208 310.433 238.825 275.866 205.023"/><polygon id="Path-34" fill="#1D52BB" points="310.433 238.825 402.713 198.289 406.996 150.722 345.001 150.722"/><polygon id="Path-35" fill="#12357C" points="402.713 198.289 406.996 150.722 417.863 198.289"/><polygon id="Path-36" fill="#1D52BB" points="402.713 198.289 380.589 238.825 428.117 243.175 417.863 198.289"/><polygon id="Path-37" fill="#12357C" points="380.589 238.825 310.433 238.825 402.713 198.289"/><polygon id="Path-38" fill="#1D4493" points="345.001 238.825 283.139 296.267 180.467 288.208 310.433 238.825"/><polygon id="Path-39" fill="#326DE6" points="283.139 296.267 380.589 238.825 345.001 238.825"/><polygon id="Path-40" fill="#5489F3" points="180.467 362.23 235.412 292.524 180.467 288.208"/><polygon id="Path-41" fill="#1D4493" points="231.803 330.455 283.139 296.267 235.412 292.524"/><polygon id="Path-42" fill="#1D52BB" points="231.803 330.455 235.412 292.524 180.467 362.23"/><polygon id="Path-43" fill="#12357C" points="380.589 238.825 402.713 286.824 434.818 272.622 428.117 243.175"/><polygon id="Path-44" fill="#1D4493" points="402.713 286.824 434.818 272.622 402.713 312.898"/><polygon id="Path-45" fill="#12357C" points="402.713 312.898 345.001 259.834 380.589 238.825"/><polygon id="Path-46" fill="#326DE6" points="380.589 238.825 402.713 286.824 402.713 312.898"/><polygon id="Path-47" fill="#1D4493" points="283.139 296.267 402.713 312.898 345.001 259.834"/><polygon id="Path-48" fill="#1D52BB" points="283.139 296.267 331.864 334.078 331.864 303.043"/><polygon id="Path-49" fill="#12357C" points="331.864 334.078 385.805 334.078 402.713 312.898 331.864 303.043"/><polygon id="Path-50" fill="#2D55A5" points="331.864 334.078 385.805 334.078 358.835 367.905"/><polygon id="Path-51" fill="#12357C" points="331.864 334.078 331.864 401.764 358.835 367.905"/><polygon id="Path-52" fill="#1D52BB" points="180.467 362.23 167.113 423.916 120.653 423.916"/><polygon id="Path-53" fill="#12357C" points="180.463 362.23 251.162 362.23 291.278 334.078 225.965 334.078"/><polygon id="Path-54" fill="#2D55A5" points="291.278 334.078 263.424 309.413 225.965 334.078"/><polygon id="Path-55" fill="#1D4493" points="291.278 334.078 283.139 296.267 263.424 309.413"/><polygon id="Path-56" fill="#234A96" points="331.864 334.078 291.278 334.078 283.139 296.267"/><polygon id="Path-57" fill="#326DE6" points="167.113 423.916 251.162 362.23 180.467 362.23"/><polygon id="Path-58" fill="#12357C" points="167.113 423.916 225.965 423.916 217.409 387.043"/><polygon id="Path-59" fill="#326DE6" points="314.165 423.916 331.864 334.078 331.864 401.764"/><polygon id="Path-60" fill="#12357C" points="331.864 334.078 291.278 334.078 314.165 423.916"/><polygon id="Path-61" fill="#1D4493" points="314.165 423.916 251.162 362.23 291.278 334.078"/><polygon id="Path-62" fill="#1D4493" points="251.162 362.23 225.965 423.916 217.409 387.043"/><polygon id="Path-63" fill="#12357C" points="225.965 423.916 314.165 423.916 276.517 387.043"/><polygon id="Path-64" fill="#2D55A5" points="225.965 423.916 251.162 362.23 276.517 387.043"/><polygon id="Path-65" fill="#5489F3" points="229.5 183.103 275.866 150.722 275.866 205.023"/><polygon id="Path-66" fill="#79A5FF" points="143.517 243.175 209.692 196.959 188.434 163.996"/><polygon id="Path-67" fill="#79A5FF" points="188.434 163.996 209.692 196.959 217.416 112.78"/><polygon id="Path-68" fill="#2D55A5" points="275.866 150.722 341.431 59.781 356.498 104.241"/><polygon id="Path-69" fill="#5489F3" points="356.498 104.241 391.757 83.962 341.481 59.781"/><polygon id="Path-70" fill="#5489F3" points="180.467 288.03 189.455 211.078 143.517 243.193"/><polygon id="Path-71" fill="#2C60C8" points="0 272.622 93.289 195.827 143.517 243.193"/></g><g id="Group-2" opacity=".858" transform="translate(2.000000, 6.000000)"><circle id="Oval" cx="97.398" cy="119.908" r="5" fill="#FFF"/><circle id="Oval-Copy-3" cx="37.398" cy="221.908" r="5" fill="#FFF"/><circle id="Oval-Copy-4" cx="161.398" cy="182.908" r="5" fill="#FFF"/><circle id="Oval-Copy-5" cx="238.398" cy="216.908" r="5" fill="#FFF"/><circle id="Oval-Copy-6" cx="121.398" cy="290.908" r="5" fill="#FFF"/><circle id="Oval-Copy-7" cx="199.398" cy="329.908" r="5" fill="#FFF"/><circle id="Oval-Copy-9" cx="332.398" cy="198.908" r="5" fill="#FFF"/><circle id="Oval-Copy-15" cx="395.398" cy="226.908" r="5" fill="#FFF"/><circle id="Oval-Copy-11" cx="317.398" cy="280.908" r="5" fill="#FFF"/><circle id="Oval-Copy-13" cx="350.398" cy="339.908" r="5" fill="#FFF"/><circle id="Oval-Copy-12" cx="290.398" cy="367.908" r="5" fill="#FFF"/><circle id="Oval-Copy-10" cx="322.398" cy="62.908" r="5" fill="#FFF"/><circle id="Oval-Copy-14" cx="378.398" cy="119.908" r="5" fill="#FFF"/><circle id="Oval-Copy-8" cx="107.398" cy="385.908" r="5" fill="#FFF"/><circle id="Oval-Copy" cx="178.398" cy="52.908" r="5" fill="#FFF"/><circle id="Oval-Copy-2" cx="263.398" cy="119.908" r="5" fill="#FFF"/><line id="Path-72" x1="97.398" x2="60.899" y1="119.908" y2="68.098" stroke="#FFF"/><polygon id="Path-73" stroke="#FFF" points="97.398 119.908 37.398 221.908 121.398 290.908"/><line id="Path-74" x1="37.398" x2="9.309" y1="221.908" y2="214.64" stroke="#FFF"/><line id="Path-75" x1="37.398" x2="0" y1="221.908" y2="255.988" stroke="#FFF"/><line id="Path-76" x1="37.398" x2="24.668" y1="221.908" y2="148.467" stroke="#FFF"/><line id="Path-77" x1="97.398" x2="30.087" y1="119.908" y2="125.493" stroke="#FFF"/><polygon id="Path-78" stroke="#FFF" points="121.398 290.908 107.398 386.982 199.398 329.908"/><polygon id="Path-79" stroke="#FFF" points="199.398 329.908 238.398 216.908 290.398 367.908"/><polyline id="Path-80" stroke="#FFF" points="199.398 329.908 238.398 216.908 121.398 292.408"/><polygon id="Path-81" stroke="#FFF" points="161.398 182.908 263.398 119.908 178.452 52.908"/><polyline id="Path-82" stroke="#FFF" points="161.398 182.1 97.398 119.908 178.398 53.689"/><line id="Path-83" x1="161.398" x2="121.398" y1="182.908" y2="290.175" stroke="#FFF"/><line id="Path-84" x1="161.398" x2="238.398" y1="182.908" y2="216.908" stroke="#FFF"/><polygon id="Path-85" stroke="#FFF" points="263.398 119.908 332.398 198.932 238.398 216.908"/><polyline id="Path-86" stroke="#FFF" points="332.398 198.908 317.398 280.908 238.398 218.274"/><polygon id="Path-87" stroke="#FFF" points="317.398 282.116 290.398 367.908 350.398 340.251"/><line id="Path-88" x1="332.398" x2="350.398" y1="199.908" y2="340.251" stroke="#FFF"/><polyline id="Path-89" stroke="#FFF" points="332.398 198.932 378.578 119.908 263.398 119.908"/><polyline id="Path-90" stroke="#FFF" points="263.398 119.908 322.398 62.908 178.398 53.635"/><polyline id="Path-91" stroke="#FFF" points="322.398 62.908 378.398 119.908 395.398 226.908 332.398 199.908"/><line id="Path-92" x1="37.398" x2="107.398" y1="221.908" y2="385.908" stroke="#FFF"/><line id="Path-93" x1="107.398" x2="290.398" y1="385.908" y2="367.908" stroke="#FFF"/><line id="Path-94" x1="290.398" x2="289.267" y1="367.908" y2="417.825" stroke="#FFF"/><line id="Path-95" x1="290.398" x2="322.398" y1="367.908" y2="405.387" stroke="#FFF"/><line id="Path-96" x1="290.398" x2="215.489" y1="367.908" y2="417.908" stroke="#FFF"/><line id="Path-97" x1="107.398" x2="137.898" y1="385.908" y2="417.908" stroke="#FFF"/><line id="Path-98" x1="107.398" x2="92.801" y1="385.908" y2="385.908" stroke="#FFF"/><line id="Path-99" x1="107.398" x2="105.59" y1="386.648" y2="403.448" stroke="#FFF"/><line id="Path-100" x1="350.398" x2="383.794" y1="339.908" y2="328.584" stroke="#FFF"/><line id="Path-101" x1="350.398" x2="350.398" y1="339.908" y2="371.212" stroke="#FFF"/><line id="Path-102" x1="350.398" x2="365.277" y1="339.908" y2="351.938" stroke="#FFF"/><line id="Path-103" x1="178.398" x2="152.898" y1="53.689" y2="23.408" stroke="#FFF"/><line id="Path-104" x1="178.398" x2="199.898" y1="53.635" y2=".408" stroke="#FFF"/><line id="Path-105" x1="178.398" x2="258.898" y1="53.635" y2="13.408" stroke="#FFF"/><line id="Path-106" x1="97.398" x2="111.207" y1="119.908" y2="43.621" stroke="#FFF"/><line id="Path-107" x1="378.578" x2="391.911" y1="119.908" y2="86.771" stroke="#FFF"/><line id="Path-108" x1="378.578" x2="409.835" y1="119.908" y2="165.346" stroke="#FFF"/><line id="Path-109" x1="378.578" x2="400.702" y1="119.908" y2="122.701" stroke="#FFF"/><line id="Path-110" x1="322.398" x2="322.398" y1="62.908" y2="45.064" stroke="#FFF"/><line id="Path-111" x1="322.398" x2="350.398" y1="62.908" y2="57.908" stroke="#FFF"/><line id="Path-112" x1="322.398" x2="304.898" y1="62.908" y2="36.408" stroke="#FFF"/><line id="Path-113" x1="395.398" x2="350.398" y1="226.908" y2="339.908" stroke="#FFF"/><line id="Path-114" x1="395.398" x2="423.587" y1="226.908" y2="226.908" stroke="#FFF"/><line id="Path-115" x1="395.398" x2="413.857" y1="226.908" y2="290.908" stroke="#FFF"/></g></g><path id="SchemaHero" fill="#326DE6" fill-rule="nonzero" d="M19.8096371,595.05 C27.3096371,595.05 33.3096371,589.05 33.3096371,581.7 L33.3105018,568.33464 C33.3297978,567.967056 33.6177452,561.040541 28.5096371,551.7 L15.6096371,527.4 C15.6096371,527.4 10.9596371,519.45 10.9596371,513.3 L10.9596371,503.25 C10.9596371,499.95 13.5096371,497.4 16.6596371,497.4 C19.8096371,497.4 22.3596371,499.95 22.3596371,503.25 L22.3596371,515.4 C25.2096371,514.2 29.4096371,512.25 30.3096371,511.8 C31.6596371,511.05 33.3096371,509.4 33.3096371,505.95 L33.3096371,501.9 C33.3096371,494.7 27.4596371,488.1 20.2596371,487.95 L13.5096371,487.95 C6.00963712,487.95 0.00963712076,494.55 0.00963712076,501.9 L0.00877241383,512.71536 C-0.0105235805,513.082944 -0.298470987,520.009459 4.80963712,529.35 L17.7096371,553.5 C17.7096371,553.5 22.3596371,561.6 22.3596371,567.75 L22.3596371,579.75 C22.3596371,583.05 19.8096371,585.6 16.6596371,585.6 C13.5096371,585.6 10.9596371,583.05 10.9596371,579.9 L10.9596371,561.6 C8.25963712,562.8 3.90963712,564.75 3.00963712,565.05 C1.65963712,565.8 0.00963712076,567.45 0.00963712076,570.9 L0.00963712076,581.7 C0.159637121,588.9 5.85963712,594.75 13.0596371,595.05 L19.8096371,595.05 Z M110.559637,595.05 C117.759637,594.75 123.459637,588.9 123.459637,581.7 L123.459637,556.35 C120.759637,557.55 116.559637,559.35 115.659637,559.8 C114.309637,560.55 112.809637,562.2 112.809637,565.65 L112.809637,579.75 C112.809637,583.05 110.259637,585.6 106.959637,585.6 C103.809637,585.6 101.259637,583.05 101.259637,579.75 L101.259637,503.1 C101.259637,499.95 103.809637,497.4 106.959637,497.4 C110.259637,497.4 112.809637,499.95 112.809637,503.1 L112.809637,526.65 L120.609637,523.05 C121.959637,522.45 123.459637,520.8 123.459637,517.35 L123.459637,501.3 C123.459637,494.1 117.759637,488.1 110.559637,487.95 L103.959637,487.95 C96.4596371,487.95 90.4596371,493.95 90.4596371,501.3 L90.4596371,581.7 C90.4596371,589.05 96.4596371,595.05 103.959637,595.05 L110.559637,595.05 Z M189.609637,594 L189.609637,545.85 L201.309637,545.85 C202.659637,545.85 203.709637,546.9 203.859637,548.25 L203.859637,594 L214.659637,594 L214.659637,493.2 C214.659637,491.4 213.609637,489 210.309637,489 L203.859637,489 L203.859637,535.2 L193.359637,535.2 C190.809637,535.2 189.609637,534.45 189.609637,531.45 L189.609637,489 L183.159637,489 C179.859637,489 178.809637,491.4 178.809637,493.2 L178.809637,594 L189.609637,594 Z M298.509637,594 C301.959637,594 303.609637,592.5 304.359637,591.15 C304.809637,590.25 306.609637,586.05 307.809637,583.35 L285.309637,583.35 L285.309637,546.9 C285.309637,545.55 286.509637,544.35 287.859637,544.35 L292.359637,544.35 C295.809637,544.35 297.309637,542.85 298.059637,541.5 C298.509637,540.6 300.309637,536.25 301.509637,533.55 L285.309637,533.55 L285.309637,502.35 C285.309637,500.85 286.359637,499.8 287.859637,499.8 L296.559637,499.8 C300.009637,499.8 301.659637,498.15 302.259637,496.8 L305.859637,489 L277.809637,489 C276.009637,489 274.659637,490.35 274.509637,492 L274.509637,594 L298.509637,594 Z M365.259637,594 L365.259637,539.85 L371.559637,567.3 C372.159637,569.55 373.359637,575.85 379.659637,575.85 L382.959637,575.85 L391.059637,539.85 L391.059637,594 L401.709637,594 L401.709637,489 L395.109637,489 C391.209637,489 390.459637,492.3 390.309637,492.75 L378.459637,553.2 L366.009637,492.9 C366.009637,492.9 365.409637,489 361.209637,489 L354.609637,489 L354.609637,594 L365.259637,594 Z M457.209637,594 L466.659637,521.7 L476.109637,594 L487.959637,594 L472.809637,494.7 C472.359637,491.85 471.609637,489 467.109637,489 L467.109637,489 L461.259637,489 L445.359637,594 L457.209637,594 Z M546.609637,594 L546.609637,545.85 L558.309637,545.85 C559.659637,545.85 560.709637,546.9 560.859637,548.25 L560.859637,594 L571.659637,594 L571.659637,493.2 C571.659637,491.4 570.609637,489 567.309637,489 L560.859637,489 L560.859637,535.2 L550.359637,535.2 C547.809637,535.2 546.609637,534.45 546.609637,531.45 L546.609637,489 L540.159637,489 C536.859637,489 535.809637,491.4 535.809637,493.2 L535.809637,594 L546.609637,594 Z M655.509637,594 C658.959637,594 660.609637,592.5 661.359637,591.15 C661.809637,590.25 663.609637,586.05 664.809637,583.35 L642.309637,583.35 L642.309637,546.9 C642.309637,545.55 643.509637,544.35 644.859637,544.35 L649.359637,544.35 C652.809637,544.35 654.309637,542.85 655.059637,541.5 C655.509637,540.6 657.309637,536.25 658.509637,533.55 L642.309637,533.55 L642.309637,502.35 C642.309637,500.85 643.359637,499.8 644.859637,499.8 L653.559637,499.8 C657.009637,499.8 658.659637,498.15 659.259637,496.8 L662.859637,489 L634.809637,489 C633.009637,489 631.659637,490.35 631.509637,492 L631.509637,594 L655.509637,594 Z M727.809637,594 L727.809637,548.85 L733.509637,548.85 C736.359637,548.85 739.059637,550.5 739.059637,555.6 L739.059637,594 L749.859637,594 L749.860538,553.771774 C749.87515,553.259649 750.012269,545.926316 745.959637,543.9 C750.233321,542.868421 749.873949,534.887258 749.860024,534.607534 L749.859637,502.2 C749.859637,494.85 743.859637,489 736.659637,489 L717.009637,489 L717.009637,594 L727.809637,594 Z M733.509637,538.65 L727.809637,538.65 L727.809637,499.05 L733.509637,499.05 C736.359637,499.05 739.059637,500.55 739.059637,504.45 L739.059637,532.65 C739.059637,537.45 736.359637,538.65 733.509637,538.65 Z M828.009637,595.05 C835.209637,594.75 840.909637,589.05 841.059637,581.85 L841.059637,501.3 C841.059637,494.1 835.209637,488.25 828.009637,487.95 L819.759637,487.95 C812.259637,487.95 806.259637,493.95 806.259637,501.3 L806.259637,581.85 C806.409637,589.05 812.409637,595.05 819.759637,595.05 L828.009637,595.05 Z M824.409637,585.6 L822.759637,585.6 C819.609637,585.45 817.059637,582.9 817.059637,579.75 L817.059637,503.25 C817.059637,500.1 819.609637,497.55 822.759637,497.4 L824.409637,497.4 C827.559637,497.4 830.109637,499.95 830.109637,503.25 L830.109637,579.75 C830.109637,583.05 827.559637,585.6 824.409637,585.6 Z"/></g></g></g></svg>